name symmetric_stride_kinematics_Nominal.mot
datacolumns 38
datarows 13
range 0.00000000 0.01250569
endheader
                time	/jointset/ground_pelvis/pelvis_tilt/value	/jointset/ground_pelvis/pelvis_list/value	/jointset/ground_pelvis/pelvis_rotation/value	/jointset/ground_pelvis/pelvis_tx/value	/jointset/ground_pelvis/pelvis_ty/value	/jointset/ground_pelvis/pelvis_tz/value	/jointset/hip_r/hip_flexion_r/value	/jointset/hip_r/hip_adduction_r/value	/jointset/hip_r/hip_rotation_r/value	/jointset/knee_r/knee_angle_r/value	/jointset/ankle_r/ankle_angle_r/value	/jointset/subtalar_r/subtalar_angle_r/value	/jointset/mtp_r/mtp_angle_r/value	/jointset/hip_l/hip_flexion_l/value	/jointset/hip_l/hip_adduction_l/value	/jointset/hip_l/hip_rotation_l/value	/jointset/knee_l/knee_angle_l/value	/jointset/ankle_l/ankle_angle_l/value	/jointset/subtalar_l/subtalar_angle_l/value	/jointset/mtp_l/mtp_angle_l/value	/jointset/back/lumbar_extension/value	/jointset/back/lumbar_bending/value	/jointset/back/lumbar_rotation/value	/jointset/acromial_r/arm_flex_r/value	/jointset/acromial_r/arm_add_r/value	/jointset/acromial_r/arm_rot_r/value	/jointset/elbow_r/elbow_flex_r/value	/jointset/radioulnar_r/pro_sup_r/value	/jointset/radius_hand_r/wrist_flex_r/value	/jointset/radius_hand_r/wrist_dev_r/value	/jointset/acromial_l/arm_flex_l/value	/jointset/acromial_l/arm_add_l/value	/jointset/acromial_l/arm_rot_l/value	/jointset/elbow_l/elbow_flex_l/value	/jointset/radioulnar_l/pro_sup_l/value	/jointset/radius_hand_l/wrist_flex_l/value	/jointset/radius_hand_l/wrist_dev_l/value	
          0.00000000	         -7.90429702	         -3.63816928	         -6.12248862	         -0.00000000	          0.99672333	          0.30570711	         35.04375590	          4.03658172	          0.51704555	        -17.48495521	        -22.98717601	        -14.90636564	          0.56042343	         26.19848057	        -10.90457135	          0.74718669	       -118.53295336	         -9.38777322	        -19.43431073	         -3.54914871	        -17.15732438	          7.70426733	         -3.36651245	         -6.09382177	        -25.71690760	        -14.29836365	         97.62479971	         76.99334912	        -23.37888484	          5.24065468	         -0.45028271	        -21.39191315	        -13.99101127	         73.51448847	         73.30691885	        -18.37218083	          5.63635798	
          0.00064634	         -7.99962151	         -3.56324168	         -6.41289409	          0.00773787	          0.99623587	          0.30588996	         34.74710144	          4.08621933	          0.45679126	        -17.33134544	        -22.40895144	        -14.36542809	          0.81723166	         26.65693018	        -10.93627149	          0.60601195	       -118.88368464	         -9.20838218	        -19.50007268	         -3.45809707	        -17.01797410	          7.61585780	         -3.15189351	         -5.13212622	        -25.65715231	        -14.19882556	         97.87443720	         77.11403643	        -23.44274977	          5.25437960	         -0.99134928	        -21.15222840	        -13.81842391	         73.33226885	         73.01944528	        -18.26958991	          5.69239109	
          0.00268851	         -8.29905716	         -3.30756587	         -7.34619003	          0.03220635	          0.99460667	          0.30646860	         33.80453978	          4.22553239	          0.35680979	        -16.87914166	        -20.48401118	        -12.83727711	          1.57499426	         28.11290535	        -11.04500414	          0.15068562	       -119.97676669	         -8.65137143	        -19.69974392	         -3.35619799	        -16.56660402	          7.32420909	         -2.44387011	         -2.09309236	        -25.44877203	        -13.86561043	         98.63321774	         77.38460869	        -23.65680782	          5.26270786	         -2.69054494	        -20.39444659	        -13.17732590	         72.83214438	         72.24676733	        -17.96340810	          5.92128204	
          0.00416856	         -8.51267623	         -3.10437536	         -8.03533612	          0.04996003	          0.99334436	          0.30688555	         33.11593446	          4.30641906	          0.36922639	        -16.59031738	        -19.02403650	        -11.91100558	          2.17080014	         29.17383829	        -11.13180508	         -0.18653527	       -120.75391303	         -8.25774473	        -19.83884384	         -3.45773126	        -16.23049246	          7.10209885	         -1.90367205	          0.10447476	        -25.27882695	        -13.61720592	         99.16292410	         77.55504073	        -23.82359755	          5.25370785	         -3.91460574	        -19.84524994	        -12.63053514	         72.53588976	         71.76094585	        -17.74752904	          6.10639321	
          0.00416856	         -8.51267623	         -3.10437536	         -8.03533612	          0.04996003	          0.99334436	          0.30688555	         33.11593446	          4.30641906	          0.36922639	        -16.59031738	        -19.02403650	        -11.91100558	          2.17080014	         29.17383829	        -11.13180508	         -0.18653527	       -120.75391303	         -8.25774473	        -19.83884384	         -3.45773126	        -16.23049246	          7.10209885	         -1.90367205	          0.10447476	        -25.27882695	        -13.61720592	         99.16292410	         77.55504073	        -23.82359755	          5.25370785	         -3.91460574	        -19.84524994	        -12.63053514	         72.53588976	         71.76094585	        -17.74752904	          6.10639321	
          0.00481490	         -8.60462016	         -3.01098675	         -8.33906066	          0.05771871	          0.99277245	          0.30706616	         32.81374308	          4.33553909	          0.39649969	        -16.47697633	        -18.37244206	        -11.55471246	          2.44453418	         29.63831424	        -11.17175021	         -0.33528342	       -121.08912368	         -8.08909074	        -19.89890058	         -3.53920683	        -16.08177395	          7.00249008	         -1.66102936	          1.06150189	        -25.19955831	        -13.50970448	         99.39114150	         77.63795609	        -23.89950190	          5.25027270	         -4.44796892	        -19.60540451	        -12.37296416	         72.42335508	         71.55702141	        -17.65235552	          6.18734724	
          0.00685707	         -8.88904944	         -2.69745540	         -9.30612411	          0.08225828	          0.99088373	          0.30762482	         31.85280013	          4.39758724	          0.56380677	        -16.17926626	        -16.24320181	        -10.56356340	          3.60408926	         31.11076278	        -11.30536009	         -0.80794947	       -122.13098092	         -7.57804755	        -20.09335074	         -3.77085331	        -15.60417633	          6.67906587	         -0.86964730	          4.06843295	        -24.92916604	        -13.18546666	        100.10909944	         77.91636146	        -24.15162833	          5.24273752	         -6.13224424	        -18.84741309	        -11.49643475	         72.14082374	         70.93898994	        -17.35004287	          6.46492653	
          0.00833713	         -9.08063928	         -2.45455030	        -10.00790886	          0.10007000	          0.98945423	          0.30801103	         31.14182693	          4.40857109	          0.74807991	        -16.03583254	        -14.63391138	         -9.96437001	          4.56676985	         32.17411778	        -11.40648668	         -1.14789150	       -122.86798961	         -7.22681427	        -20.23742614	         -3.85102074	        -15.26081339	          6.43760566	         -0.27781893	          6.22965093	        -24.71425995	        -12.97338837	        100.63233659	         78.14840828	        -24.34599871	          5.23669392	         -7.35328043	        -18.29831499	        -10.81220838	         72.00540397	         70.51427633	        -17.12943555	          6.68411865	
          0.00833713	         -9.08063928	         -2.45455030	        -10.00790886	          0.10007000	          0.98945423	          0.30801103	         31.14182693	          4.40857109	          0.74807991	        -16.03583254	        -14.63391138	         -9.96437001	          4.56676985	         32.17411778	        -11.40648668	         -1.14789150	       -122.86798961	         -7.22681427	        -20.23742614	         -3.85102074	        -15.26081339	          6.43760566	         -0.27781893	          6.22965093	        -24.71425995	        -12.97338837	        100.63233659	         78.14840828	        -24.34599871	          5.23669392	         -7.35328043	        -18.29831499	        -10.81220838	         72.00540397	         70.51427633	        -17.12943555	          6.68411865	
          0.00898347	         -9.15815059	         -2.34475553	        -10.31308329	          0.10785603	          0.98881851	          0.30817310	         30.82520591	          4.40301413	          0.84216986	        -15.99571689	        -13.91102985	         -9.73232966	          4.98410710	         32.63522145	        -11.45099544	         -1.29446537	       -123.18461642	         -7.07744315	        -20.30071021	         -3.85842611	        -15.11428968	          6.33045123	         -0.01601913	          7.16851890	        -24.61542803	        -12.88813862	        100.86366803	         78.25048439	        -24.43446378	          5.23648387	         -7.88723731	        -18.05863179	        -10.50393504	         71.96603576	         70.31755266	        -17.03478842	          6.78824080	
          0.01102564	         -9.36924153	         -1.98668942	        -11.26433160	          0.13248975	          0.98678506	          0.30864906	         29.79285921	          4.33819684	          1.16692047	        -15.98682460	        -11.53830191	         -9.10831229	          6.30916290	         34.07087876	        -11.58982197	         -1.74244606	       -124.16254615	         -6.61922601	        -20.49724526	         -3.67986806	        -14.67610544	          5.98764851	          0.81847499	         10.11224698	        -24.28330459	        -12.66163924	        101.60624890	         78.67332035	        -24.72292873	          5.21102350	         -9.57270737	        -17.30091522	         -9.50158007	         71.90032889	         69.73681438	        -16.73622027	          7.13090697	
          0.01250569	         -9.48948822	         -1.72107716	        -11.93586223	          0.15037216	          0.98529836	          0.30895458	         29.01398520	          4.24570133	          1.41640262	        -16.09946535	         -9.72026611	         -8.73520730	          7.26031742	         35.09272623	        -11.68844504	         -2.04550589	       -124.84968849	         -6.29341307	        -20.63061567	         -3.42785933	        -14.38459267	          5.73915847	          1.42521776	         12.22308656	        -24.02480086	        -12.54281157	        102.16176102	         79.04505730	        -24.94065389	          5.17255787	        -10.79433097	        -16.75160775	         -8.75649156	         71.90782015	         69.39731477	        -16.51893334	          7.39422888	
          0.01250569	         -9.48948822	         -1.72107716	        -11.93586223	          0.15037216	          0.98529836	          0.30895458	         29.01398520	          4.24570133	          1.41640262	        -16.09946535	         -9.72026611	         -8.73520730	          7.26031742	         35.09272623	        -11.68844504	         -2.04550589	       -124.84968849	         -6.29341307	        -20.63061567	         -3.42785933	        -14.38459267	          5.73915847	          1.42521776	         12.22308656	        -24.02480086	        -12.54281157	        102.16176102	         79.04505730	        -24.94065389	          5.17255787	        -10.79433097	        -16.75160775	         -8.75649156	         71.90782015	         69.39731477	        -16.51893334	          7.39422888	
